<svg width="14" height="12" viewBox="0 0 14 12" fill="none" xmlns="http://www.w3.org/2000/svg">
<path d="M2.33333 3.33317C1.97971 3.33317 1.64057 3.19269 1.39052 2.94265C1.14048 2.6926 1 2.35346 1 1.99984C1 1.64622 1.14048 1.30708 1.39052 1.05703C1.64057 0.80698 1.97971 0.666504 2.33333 0.666504C2.68696 0.666504 3.02609 0.80698 3.27614 1.05703C3.52619 1.30708 3.66667 1.64622 3.66667 1.99984C3.66667 2.35346 3.52619 2.6926 3.27614 2.94265C3.02609 3.19269 2.68696 3.33317 2.33333 3.33317ZM2.33333 3.33317V8.6665M7 3.33317C6.64638 3.33317 6.30724 3.19269 6.05719 2.94265C5.80714 2.6926 5.66667 2.35346 5.66667 1.99984C5.66667 1.64622 5.80714 1.30708 6.05719 1.05703C6.30724 0.80698 6.64638 0.666504 7 0.666504C7.35362 0.666504 7.69276 0.80698 7.94281 1.05703C8.19286 1.30708 8.33333 1.64622 8.33333 1.99984C8.33333 2.35346 8.19286 2.6926 7.94281 2.94265C7.69276 3.19269 7.35362 3.33317 7 3.33317ZM7 3.33317V8.6665M2.33333 8.6665C2.68696 8.6665 3.02609 8.80698 3.27614 9.05703C3.52619 9.30708 3.66667 9.64622 3.66667 9.99984C3.66667 10.3535 3.52619 10.6926 3.27614 10.9426C3.02609 11.1927 2.68696 11.3332 2.33333 11.3332C1.97971 11.3332 1.64057 11.1927 1.39052 10.9426C1.14048 10.6926 1 10.3535 1 9.99984C1 9.64622 1.14048 9.30708 1.39052 9.05703C1.64057 8.80698 1.97971 8.6665 2.33333 8.6665ZM7 8.6665C7.35362 8.6665 7.69276 8.80698 7.94281 9.05703C8.19286 9.30708 8.33333 9.64622 8.33333 9.99984C8.33333 10.3535 8.19286 10.6926 7.94281 10.9426C7.69276 11.1927 7.35362 11.3332 7 11.3332C6.64638 11.3332 6.30724 11.1927 6.05719 10.9426C5.80714 10.6926 5.66667 10.3535 5.66667 9.99984C5.66667 9.64622 5.80714 9.30708 6.05719 9.05703C6.30724 8.80698 6.64638 8.6665 7 8.6665ZM10.3333 1.99984C10.3333 2.35346 10.4738 2.6926 10.7239 2.94265C10.9739 3.19269 11.313 3.33317 11.6667 3.33317C12.0203 3.33317 12.3594 3.19269 12.6095 2.94265C12.8595 2.6926 13 2.35346 13 1.99984C13 1.64622 12.8595 1.30708 12.6095 1.05703C12.3594 0.80698 12.0203 0.666504 11.6667 0.666504C11.313 0.666504 10.9739 0.80698 10.7239 1.05703C10.4738 1.30708 10.3333 1.64622 10.3333 1.99984Z" stroke="#FEFEFF" stroke-linecap="round" stroke-linejoin="round"/>
<path d="M11.6668 3.33301V4.66634C11.6668 5.01996 11.5264 5.3591 11.2763 5.60915C11.0263 5.8592 10.6871 5.99967 10.3335 5.99967H2.3335" stroke="#FEFEFF" stroke-linecap="round" stroke-linejoin="round"/>
</svg>
